<?xml version="1.0" encoding="UTF-8"?>
<!DOCTYPE svg PUBLIC "-//W3C//DTD SVG 1.1//EN" "http://www.w3.org/Graphics/SVG/1.1/DTD/svg11.dtd">
<svg xmlns="http://www.w3.org/2000/svg" xmlns:xlink="http://www.w3.org/1999/xlink" version="1.1" width="101px" height="33px" viewBox="-0.5 -0.5 101 33" style="background-color: rgb(255, 255, 255);"><defs/><g><path d="M 60.5 21 L 60.61 21 L 60.28 19 L 60.71 17 L 60.33 15 L 60.79 13 L 60.5 11 L 60.5 10.72 L 64.5 10.81 L 68.5 10.96 L 72.5 10.91 L 76.5 10.84 L 80.5 11 L 80.66 11 L 80.21 8.9 L 80.72 6.8 L 80.2 4.7 L 80.38 2.6 L 80.5 0.5 L 80.35 0.31 L 84.34 3.65 L 88.26 6.89 L 91.7 9.55 L 95.89 13.13 L 99.5 16 L 99.48 15.98 L 95.68 19.07 L 92 22.32 L 88.08 25.28 L 84.35 28.46 L 80.5 31.5 L 80.73 31.5 L 80.45 29.4 L 80.7 27.3 L 80.64 25.2 L 80.81 23.1 L 80.5 21 L 80.5 21.31 L 76.5 20.93 L 72.5 21.19 L 68.5 21.23 L 64.5 20.84 L 60.5 21 Z Z" fill="none" stroke="#d6d6d6" stroke-linejoin="round" stroke-linecap="round" stroke-miterlimit="10" stroke-dasharray="1 2" pointer-events="all"/><path d="M 30.5 21 L 30.53 21 L 30.71 19 L 30.21 17 L 30.8 15 L 30.36 13 L 30.5 11 L 30.5 10.71 L 34.5 10.74 L 38.5 10.68 L 42.5 10.75 L 46.5 11.23 L 50.5 11 L 50.56 11 L 50.34 8.9 L 50.55 6.8 L 50.78 4.7 L 50.52 2.6 L 50.5 0.5 L 50.58 0.6 L 54.39 3.72 L 58.13 6.73 L 61.91 9.81 L 65.75 12.96 L 69.5 16 L 69.7 16.25 L 65.86 19.3 L 61.71 21.96 L 58.04 25.23 L 54.5 28.64 L 50.5 31.5 L 50.22 31.5 L 50.19 29.4 L 50.6 27.3 L 50.28 25.2 L 50.79 23.1 L 50.5 21 L 50.5 21.3 L 46.5 20.86 L 42.5 21.13 L 38.5 20.97 L 34.5 21.16 L 30.5 21 Z Z" fill="#a6a6a6" stroke="none" pointer-events="all"/><path d="M 0.5 21 L 0.59 21 L 0.7 19 L 0.34 17 L 0.5 15 L 0.21 13 L 0.5 11 L 0.5 10.82 L 4.5 10.77 L 8.5 11.19 L 12.5 11.25 L 16.5 11.26 L 20.5 11 L 20.41 11 L 20.82 8.9 L 20.54 6.8 L 20.18 4.7 L 20.75 2.6 L 20.5 0.5 L 20.42 0.4 L 24.35 3.66 L 27.96 6.53 L 32 9.92 L 35.84 13.07 L 39.5 16 L 39.54 16.05 L 35.66 19.05 L 31.79 22.06 L 28.21 25.43 L 24.42 28.55 L 20.5 31.5 L 20.7 31.5 L 20.23 29.4 L 20.66 27.3 L 20.74 25.2 L 20.68 23.1 L 20.5 21 L 20.5 20.69 L 16.5 20.85 L 12.5 20.73 L 8.5 20.69 L 4.5 20.7 L 0.5 21 Z Z" fill="#4f4f4f" stroke="#4f4f4f" stroke-linejoin="round" stroke-linecap="round" stroke-miterlimit="10" pointer-events="all"/><path d="M 3.06 19.07 C 3.22 18.47 3.63 17.97 4.17 17.7 C 4.71 17.42 5.34 17.39 5.91 17.62 C 6.73 18.03 7.37 18.74 7.68 19.61 C 9.15 15.37 11.38 11.44 14.26 8.03 C 15.08 7.27 16.22 7 17.28 7.31 C 17.55 7.35 17.78 7.53 17.89 7.79 C 18 8.05 17.97 8.34 17.82 8.57 C 13.9 13.07 10.99 18.38 9.28 24.13 C 8.28 24.65 7.09 24.65 6.09 24.13 C 5.33 22.42 4.31 20.83 3.06 19.43 C 3 19.32 3 19.18 3.06 19.07 Z" fill="#a2ff9c" stroke="none" pointer-events="all"/></g></svg>